<svg width="200" height="13" viewBox="0 0 200 13" fill="none" xmlns="http://www.w3.org/2000/svg">
<path d="M0 0.499997C0 0.279997 0.18 0.0799968 0.42 0.0799968H1.88C2.12 0.0799968 2.3 0.279997 2.3 0.499997V4.92H11.38V0.499997C11.38 0.279997 11.56 0.0799968 11.8 0.0799968H13.26C13.5 0.0799968 13.68 0.279997 13.68 0.499997V11.64C13.68 11.88 13.5 12.08 13.26 12.08H11.8C11.56 12.08 11.38 11.88 11.38 11.64V7.24H2.3V11.64C2.3 11.88 2.12 12.08 1.88 12.08H0.42C0.18 12.08 0 11.88 0 11.64V0.499997ZM17.1192 7.24C16.8792 7.24 16.6992 7.04 16.6992 6.8V5.34C16.6992 5.12 16.8792 4.92 17.1192 4.92H28.0192C28.2592 4.92 28.4592 5.12 28.4592 5.34V6.8C28.4592 7.04 28.2592 7.24 28.0192 7.24H17.1192ZM17.1192 2.4C16.8792 2.4 16.6992 2.2 16.6992 1.96V0.499997C16.6992 0.279997 16.8792 0.0799968 17.1192 0.0799968H29.2992C29.5392 0.0799968 29.7192 0.279997 29.7192 0.499997V1.96C29.7192 2.2 29.5392 2.4 29.2992 2.4H17.1192ZM16.6992 10.18C16.6992 9.94 16.8792 9.76 17.1192 9.76H29.2992C29.5392 9.76 29.7192 9.94 29.7192 10.18V11.64C29.7192 11.88 29.5392 12.08 29.2992 12.08H17.1192C16.8792 12.08 16.6992 11.88 16.6992 11.64V10.18ZM48.1544 11.86L43.1744 2.96C42.9744 2.6 42.6144 2.4 42.1944 2.4H41.1744C40.7744 2.4 40.4144 2.6 40.2144 2.96L36.0344 10.4L35.2144 11.86C35.1344 12 34.9944 12.08 34.8344 12.08H33.1744C33.0144 12.08 32.8744 12 32.8144 11.86C32.7344 11.72 32.7344 11.58 32.7944 11.44L38.5144 1.26C38.9344 0.519997 39.6744 0.0799968 40.5344 0.0799968H42.8544C43.7144 0.0799968 44.4544 0.519997 44.8744 1.26L50.5744 11.44C50.6544 11.58 50.6544 11.72 50.5744 11.86C50.4944 12 50.3544 12.08 50.2144 12.08H48.5344C48.3744 12.08 48.2344 12 48.1544 11.86ZM53.6719 9.02V0.499997C53.6719 0.279997 53.8519 0.0799968 54.0919 0.0799968H55.5519C55.7719 0.0799968 55.9719 0.279997 55.9719 0.499997V8.54C55.9719 9.22 56.5119 9.76 57.1919 9.76H64.9919C65.2319 9.76 65.4319 9.96 65.4319 10.18V11.64C65.4319 11.88 65.2319 12.06 64.9919 12.06H56.7119C55.0319 12.06 53.6719 10.7 53.6719 9.02ZM68.4375 0.499997C68.4375 0.279997 68.6175 0.0799968 68.8575 0.0799968H70.3175C70.5575 0.0799968 70.7375 0.279997 70.7375 0.499997V11.64C70.7375 11.88 70.5575 12.08 70.3175 12.08H68.8575C68.6175 12.08 68.4375 11.88 68.4375 11.64V0.499997ZM73.75 0.499997C73.75 0.279997 73.93 0.0799968 74.17 0.0799968H77.01C77.85 0.0799968 78.55 0.479996 78.99 1.2L82.47 6.96L83.85 9.22C84.05 9.56 84.39 9.76 84.81 9.76H85.13V8.92V0.499997C85.13 0.279997 85.31 0.0799968 85.55 0.0799968H87.01C87.25 0.0799968 87.43 0.279997 87.43 0.499997V11.64C87.43 11.88 87.25 12.08 87.01 12.08H84.17C83.33 12.08 82.63 11.66 82.19 10.96L78.71 5.2L77.33 2.94C77.13 2.58 76.79 2.4 76.37 2.4H76.05V3.24V11.64C76.05 11.88 75.87 12.08 75.63 12.08H74.17C73.93 12.08 73.75 11.88 73.75 11.64V0.499997ZM102.449 9.76V7.24H95.7092C95.4692 7.24 95.2692 7.04 95.2692 6.8V5.34C95.2692 5.12 95.4692 4.92 95.7092 4.92H104.329C104.569 4.92 104.749 5.12 104.749 5.34V11.64C104.749 11.88 104.569 12.08 104.329 12.08H93.4892C91.8092 12.08 90.4492 10.7 90.4492 9.02V3.14C90.4492 1.46 91.8092 0.0799968 93.4892 0.0799968H104.329C104.569 0.0799968 104.749 0.279997 104.749 0.499997V1.96C104.749 2.2 104.569 2.4 104.329 2.4H93.9692C93.2892 2.4 92.7492 2.94 92.7492 3.6V8.54C92.7492 9.22 93.2892 9.76 93.9692 9.76H102.449ZM119.298 0.639997C119.238 0.499997 119.238 0.339997 119.318 0.219997C119.378 0.0799968 119.518 -3.33786e-06 119.678 -3.33786e-06H121.358C121.498 -3.33786e-06 121.638 0.0799968 121.718 0.219997L126.718 9.1C126.918 9.48 127.278 9.68 127.678 9.68H128.698C129.118 9.68 129.478 9.48 129.678 9.1L130.178 8.22L125.918 0.639997C125.838 0.499997 125.838 0.339997 125.918 0.219997C125.998 0.0799968 126.138 -3.33786e-06 126.298 -3.33786e-06H127.958C128.118 -3.33786e-06 128.258 0.0799968 128.338 0.219997L133.318 9.1C133.538 9.48 133.878 9.68 134.298 9.68H135.318C135.738 9.68 136.078 9.48 136.298 9.1L140.458 1.68L141.278 0.219997C141.358 0.0799968 141.498 -3.33786e-06 141.658 -3.33786e-06H143.318C143.478 -3.33786e-06 143.618 0.0799968 143.698 0.219997C143.778 0.339997 143.778 0.499997 143.698 0.639997L137.978 10.82C137.558 11.56 136.838 12 135.978 12H133.638C132.798 12 132.058 11.56 131.638 10.82L131.498 10.58L131.378 10.82C130.958 11.56 130.218 12 129.358 12H127.038C126.178 12 125.438 11.56 125.018 10.82L119.298 0.639997ZM162.197 11.86L157.217 2.96C157.017 2.6 156.657 2.4 156.237 2.4H155.217C154.817 2.4 154.457 2.6 154.257 2.96L150.077 10.4L149.257 11.86C149.177 12 149.037 12.08 148.877 12.08H147.217C147.057 12.08 146.917 12 146.857 11.86C146.777 11.72 146.777 11.58 146.837 11.44L152.557 1.26C152.977 0.519997 153.717 0.0799968 154.577 0.0799968H156.897C157.757 0.0799968 158.497 0.519997 158.917 1.26L164.617 11.44C164.697 11.58 164.697 11.72 164.617 11.86C164.537 12 164.397 12.08 164.257 12.08H162.577C162.417 12.08 162.277 12 162.197 11.86ZM169.775 3.06C169.555 2.7 169.335 2.42 168.815 2.38H168.135C167.895 2.38 167.715 2.18 167.715 1.94V0.479996C167.715 0.279997 167.875 0.0999966 168.095 0.0799968H169.395C170.215 0.0799968 170.955 0.499997 171.395 1.24L172.435 3.06L173.035 4.1L173.195 4.38C173.415 4.74 173.755 4.94 174.175 4.94H174.735H176.015C176.415 4.94 176.775 4.74 176.975 4.38L177.155 4.1L177.755 3.06L178.795 1.24C179.235 0.499997 179.955 0.0799968 180.795 0.0799968H182.095C182.315 0.0999966 182.475 0.279997 182.475 0.479996V1.94C182.475 2.18 182.295 2.38 182.055 2.38H181.355C180.855 2.42 180.635 2.7 180.415 3.06L179.815 4.1L179.235 5.1L179.055 5.42L178.675 6.08L178.655 6.1C178.235 6.84 177.515 7.26 176.655 7.26H176.255V11.64C176.255 11.88 176.055 12.06 175.815 12.06H174.375C174.135 12.06 173.935 11.88 173.935 11.64V7.26H173.535C172.675 7.26 171.955 6.84 171.535 6.1L171.515 6.08L171.135 5.42L170.935 5.1L170.375 4.1L169.775 3.06ZM185.808 10.18C185.808 9.94 186.008 9.76 186.248 9.76H195.648C196.328 9.76 196.868 9.22 196.868 8.54V8.44C196.868 7.78 196.328 7.24 195.648 7.24H188.528C186.848 7.24 185.488 5.86 185.488 4.18V3.14C185.488 1.46 186.848 0.0799968 188.528 0.0799968H198.408C198.648 0.0799968 198.848 0.279997 198.848 0.499997V1.96C198.848 2.2 198.648 2.4 198.408 2.4H189.008C188.328 2.4 187.788 2.94 187.788 3.6V3.7C187.788 4.38 188.328 4.92 189.008 4.92H196.128C197.808 4.92 199.168 6.3 199.168 7.98V9.02C199.168 10.7 197.808 12.06 196.128 12.06H186.248C186.008 12.06 185.808 11.88 185.808 11.64V10.18Z" fill="#077D55"/>
</svg>
